PathFileType	4	(x/y/z)	S01_PSF_T12.trc
DataRate	CameraRate	NumFrames	NumMarkers	Units	OrigDataRate	OrigDataStartFrame	OrigNumFrames
240	240	7	51	mm	240	47	372
Frame#	Time	Sternum			R.Acromium			L.Acromium			Top.Head			R.ASIS			L.ASIS			R.PSIS			L.PSIS			R.Great.Tro			L.Great.Tro			R.Iliac.Crest			L.Iliac.Crest			V.Sacral			R.Thigh.Upper.Post			R.Thigh.Lower.Ant			R.Thigh.Lower.Post			R.Thigh.Upper.Ant			R.Knee.Lat			R.Knee.Med			R.Shank.Upper.Post			R.Shank.Lower.Ant			R.Shank.Lower.Post			R.Shank.Upper.Ant			R.Ankle.Lat			R.Ankle.Med			R.Heel.Upper			R.Heel.Med			R.Heel.Lat			R.Toe.Lat			R.Toe.Med			R.Toe.Tip			L.Thigh.Upper.Post			L.Thigh.Lower.Ant			L.Thigh.Lower.Post			L.Thigh.Upper.Ant			L.Knee.Lat			L.Knee.Med			L.Shank.Upper.Post			L.Shank.Lower.Ant			L.Shank.Lower.Post			L.Shank.Upper.Ant			L.Ankle.Lat			L.Ankle.Med			L.Heel.Upper			L.Heel.Med			L.Heel.Lat			L.Toe.Lat			L.Toe.Med			L.Toe.Tip			Cervical.Spine			Back			
		X1	Y1	Z1	X2	Y2	Z2	X3	Y3	Z3	X4	Y4	Z4	X5	Y5	Z5	X6	Y6	Z6	X7	Y7	Z7	X8	Y8	Z8	X9	Y9	Z9	X10	Y10	Z10	X11	Y11	Z11	X12	Y12	Z12	X13	Y13	Z13	X14	Y14	Z14	X15	Y15	Z15	X16	Y16	Z16	X17	Y17	Z17	X18	Y18	Z18	X19	Y19	Z19	X20	Y20	Z20	X21	Y21	Z21	X22	Y22	Z22	X23	Y23	Z23	X24	Y24	Z24	X25	Y25	Z25	X26	Y26	Z26	X27	Y27	Z27	X28	Y28	Z28	X29	Y29	Z29	X30	Y30	Z30	X31	Y31	Z31	X32	Y32	Z32	X33	Y33	Z33	X34	Y34	Z34	X35	Y35	Z35	X36	Y36	Z36	X37	Y37	Z37	X38	Y38	Z38	X39	Y39	Z39	X40	Y40	Z40	X41	Y41	Z41	X42	Y42	Z42	X43	Y43	Z43	X44	Y44	Z44	X45	Y45	Z45	X46	Y46	Z46	X47	Y47	Z47	X48	Y48	Z48	X49	Y49	Z49	X50	Y50	Z50	X51	Y51	Z51	

47	0.19167	-811.41	1263.3	286.14	-921.72	1518	459.76	-925.12	1540.6	132.41	-868.94	1840.4	298.51	-879.01	1018.3	439.03	-872.13	1014.4	171.89	-1114.4	1062.1	344.5	-1117.9	1069	242.08	-958.15	969.11	523.21	-988.3	974.53	93.537	-967.31	1118.4	500.41	-975.9	1100.9	95.695	-1132	1031	288.99	-852.4	673.26	501.61	-758.8	637.26	474.86	-813.88	595.12	477.18	-795.43	717.99	495.66	-765.76	554.21	474.01	-758.1	553.97	323.9	-766.33	388.19	491.81	-678	332.13	456.07	-745.65	321.11	481.44	-703.68	399.32	472.14	-666.21	127.65	448.6	-632.16	152	359.68	-709.64	68.036	383.19	-677.68	51.818	356.19	-688.51	45.544	419.94	-521.52	118.91	495.33	-484.89	145.18	378.18	-445.33	191.27	438.14	-1093.8	716.89	120.87	-1029.1	626.86	120.85	-1107.3	627.94	136.46	-1024	720.45	101.31	-1086.7	532.15	125.47	-1060.1	526.43	269.62	-1175.8	403.53	116.13	-1131.9	303.74	139.32	-1189.6	327.42	120.71	-1116	378.82	128.83	-1244.3	117.41	167.04	-1213.7	124.49	264.12	-1316.7	90.277	216.34	-1306.6	63.965	248.38	-1312.1	65.616	186.34	-1103.5	39.507	143.43	-1075	44.097	264.14	-1012.3	50.02	211.7	-1003.1	1589.5	297.7	-1116.9	1286.5	304.98
48	0.19583	-805.81	1261.9	286.73	-916.08	1516.5	460.45	-919.4	1539.3	133.13	-863.27	1839.1	299.41	-873.41	1016.9	439.36	-866.64	1013.2	172.08	-1108.9	1060.7	344.76	-1112.2	1067.8	242.38	-952.7	967.49	523.38	-983.05	973.7	93.613	-961.87	1116.8	500.79	-970.33	1099.8	95.95	-1126.4	1029.8	289.19	-846.92	671.82	501.68	-753.42	635.93	474.4	-808.41	593.72	477.07	-790.02	716.61	495.35	-760	553.19	473.75	-753.19	552.56	323.41	-758.34	387.12	491.72	-669.26	332.24	455.88	-736.74	320.3	481.3	-695.86	399.1	471.92	-654.32	127.71	448.41	-620.61	152.51	359.4	-697.11	67.418	383.11	-664.99	51.689	356.01	-675.52	45.219	419.81	-509.28	121.08	494.79	-473.4	147.93	377.49	-434.31	194.63	437.39	-1089.9	716.7	121.09	-1025.6	626.32	120.88	-1103.8	627.8	136.65	-1020	719.9	101.38	-1083.8	531.94	125.46	-1057	525.96	269.65	-1173.6	403.81	116.17	-1130.4	303.73	139.27	-1187.7	327.9	120.56	-1114.1	378.71	128.81	-1243.9	117.95	167.11	-1213.3	124.93	264.11	-1316.6	91.15	216.41	-1306.4	64.751	248.46	-1312	66.382	186.41	-1103.5	39.501	143.45	-1074.9	44.081	264.14	-1012.3	49.859	211.72	-997.49	1588.2	298.42	-1111.4	1285.2	305.44
49	0.2	-800.2	1260.4	287.34	-910.42	1515	461.17	-913.67	1538	133.88	-857.59	1837.8	300.34	-867.79	1015.5	439.68	-861.12	1012	172.26	-1103.3	1059.4	345.03	-1106.5	1066.7	242.7	-947.2	965.88	523.53	-977.78	972.86	93.695	-956.4	1115.2	501.17	-964.77	1098.7	96.204	-1120.8	1028.6	289.4	-841.28	670.45	501.76	-747.89	634.69	473.95	-802.78	592.39	477	-784.46	715.31	495.03	-754.14	552.18	473.53	-748.16	551.2	322.98	-750.49	386.08	491.63	-660.74	332.27	455.67	-728.05	319.5	481.15	-688.16	398.84	471.7	-642.96	127.74	448.16	-609.62	152.96	359.08	-685.18	66.851	382.97	-652.94	51.57	355.76	-663.17	44.911	419.62	-497.59	123.03	494.2	-462.45	150.41	376.72	-423.78	197.64	436.58	-1085.9	716.47	121.33	-1022	625.76	120.9	-1100.1	627.63	136.84	-1016	719.33	101.46	-1080.8	531.71	125.46	-1053.7	525.46	269.67	-1171.4	404.08	116.2	-1128.8	303.71	139.22	-1185.8	328.38	120.4	-1112	378.58	128.79	-1243.4	118.53	167.15	-1212.8	125.41	264.08	-1316.4	92.088	216.44	-1306.2	65.6	248.5	-1311.7	67.2	186.45	-1103.4	39.496	143.47	-1074.8	44.067	264.15	-1012.2	49.694	211.73	-991.84	1586.9	299.18	-1105.7	1283.8	305.92
50	0.20417	-794.56	1259	287.95	-904.76	1513.5	461.92	-907.94	1536.7	134.65	-851.91	1836.5	301.3	-862.14	1014.1	439.97	-855.58	1010.8	172.42	-1097.7	1058	345.32	-1100.8	1065.5	243.04	-941.65	964.28	523.69	-972.48	972.02	93.785	-950.9	1113.6	501.56	-959.24	1097.6	96.457	-1115.2	1027.4	289.63	-835.48	669.15	501.86	-742.2	633.54	473.49	-796.97	591.14	476.94	-778.74	714.1	494.7	-748.18	551.2	473.32	-743	549.89	322.62	-742.77	385.07	491.52	-652.44	332.22	455.44	-719.6	318.71	480.97	-680.6	398.51	471.47	-632.15	127.72	447.87	-599.19	153.31	358.71	-673.88	66.312	382.78	-641.54	51.435	355.46	-651.48	44.597	419.37	-486.48	124.71	493.55	-452.07	152.57	375.89	-413.74	200.26	435.71	-1081.7	716.21	121.58	-1018.3	625.19	120.92	-1096.4	627.42	137.04	-1011.9	718.75	101.55	-1077.6	531.44	125.47	-1050.3	524.93	269.69	-1169	404.36	116.23	-1127.1	303.68	139.17	-1183.7	328.86	120.24	-1109.8	378.44	128.78	-1242.9	119.14	167.17	-1212.3	125.92	264.03	-1316.2	93.092	216.44	-1306	66.514	248.51	-1311.5	68.071	186.46	-1103.4	39.491	143.49	-1074.7	44.055	264.15	-1012.1	49.526	211.75	-986.18	1585.6	299.97	-1100.1	1282.5	306.43
51	0.20833	-788.9	1257.6	288.57	-899.08	1512	462.7	-902.19	1535.5	135.45	-846.21	1835.2	302.28	-856.46	1012.7	440.25	-850.01	1009.7	172.57	-1092.1	1056.6	345.62	-1095	1064.4	243.39	-936.05	962.71	523.86	-967.17	971.17	93.885	-945.37	1112	501.96	-953.72	1096.4	96.711	-1109.6	1026.2	289.88	-829.52	667.94	501.96	-736.34	632.48	473.02	-791	589.98	476.91	-772.88	712.98	494.36	-742.11	550.23	473.12	-737.69	548.65	322.3	-735.18	384.09	491.4	-644.37	332.07	455.18	-711.38	317.93	480.78	-673.15	398.11	471.23	-621.89	127.62	447.52	-589.33	153.54	358.29	-663.22	65.783	382.53	-630.82	51.26	355.11	-640.46	44.259	419.06	-475.96	126.12	492.87	-442.24	154.38	375.01	-404.19	202.46	434.78	-1077.5	715.92	121.83	-1014.5	624.61	120.95	-1092.5	627.19	137.25	-1007.7	718.15	101.65	-1074.2	531.15	125.48	-1046.7	524.36	269.7	-1166.5	404.63	116.24	-1125.3	303.65	139.12	-1181.5	329.34	120.09	-1107.5	378.29	128.77	-1242.4	119.8	167.16	-1211.8	126.47	263.96	-1316	94.161	216.41	-1305.7	67.498	248.5	-1311.3	69	186.44	-1103.4	39.487	143.51	-1074.6	44.045	264.16	-1012.1	49.355	211.77	-980.5	1584.3	300.79	-1094.5	1281.2	306.95
52	0.2125	-783.23	1256.2	289.2	-893.39	1510.5	463.52	-896.43	1534.2	136.28	-840.5	1833.9	303.29	-850.75	1011.4	440.51	-844.42	1008.5	172.71	-1086.5	1055.2	345.95	-1089.3	1063.2	243.75	-930.38	961.16	524.02	-961.82	970.31	93.996	-939.8	1110.4	502.36	-948.22	1095.3	96.969	-1103.9	1025	290.14	-823.4	666.81	502.06	-730.33	631.52	472.55	-784.86	588.91	476.88	-766.85	711.96	494.02	-735.92	549.28	472.93	-732.22	547.48	322.04	-727.73	383.13	491.27	-636.54	331.82	454.89	-703.4	317.15	480.56	-665.83	397.64	470.97	-612.22	127.42	447.13	-580.04	153.64	357.83	-653.22	65.247	382.23	-620.78	51.025	354.71	-630.15	43.881	418.7	-466.03	127.23	492.16	-432.98	155.82	374.08	-395.13	204.22	433.81	-1073.1	715.6	122.09	-1010.6	624.01	120.98	-1088.5	626.91	137.47	-1003.4	717.54	101.76	-1070.7	530.83	125.5	-1043	523.76	269.71	-1163.9	404.9	116.25	-1123.4	303.62	139.07	-1179.3	329.8	119.95	-1105.1	378.12	128.77	-1241.9	120.5	167.13	-1211.3	127.06	263.86	-1315.8	95.298	216.34	-1305.5	68.555	248.45	-1311	69.989	186.39	-1103.4	39.484	143.52	-1074.5	44.038	264.16	-1012	49.182	211.79	-974.81	1583	301.65	-1088.8	1279.8	307.5
53	0.21667	-777.53	1254.9	289.83	-887.68	1509	464.36	-890.67	1532.9	137.13	-834.78	1832.6	304.34	-845.01	1010	440.75	-838.79	1007.4	172.84	-1080.8	1053.9	346.29	-1083.6	1062.1	244.13	-924.66	959.65	524.19	-956.45	969.45	94.121	-934.2	1108.8	502.78	-942.73	1094.2	97.234	-1098.2	1023.7	290.43	-817.12	665.77	502.14	-724.16	630.64	472.07	-778.54	587.92	476.84	-760.68	711.04	493.65	-729.62	548.36	472.74	-726.6	546.39	321.82	-720.42	382.19	491.11	-628.93	331.45	454.56	-695.66	316.35	480.32	-658.62	397.1	470.69	-603.12	127.13	446.7	-571.33	153.57	357.34	-643.88	64.69	381.89	-611.44	50.71	354.27	-620.54	43.45	418.3	-456.7	128.02	491.42	-424.27	156.86	373.11	-386.57	205.52	432.8	-1068.7	715.24	122.36	-1006.5	623.39	121.01	-1084.4	626.6	137.69	-998.96	716.91	101.89	-1067.1	530.49	125.53	-1039.1	523.13	269.72	-1161.1	405.16	116.25	-1121.4	303.58	139.03	-1177	330.24	119.85	-1102.6	377.93	128.77	-1241.4	121.24	167.07	-1210.7	127.7	263.74	-1315.6	96.502	216.23	-1305.2	69.689	248.37	-1310.7	71.043	186.3	-1103.3	39.483	143.54	-1074.4	44.034	264.17	-1011.9	49.006	211.81	-969.11	1581.7	302.54	-1083.1	1278.5	308.06
